{"title":"Max.2015.HC.HDRiP.XViD.ReLeNTLesS","uid":12150341,"size":1428344292,"categoryP":"video","categoryS":"movies","magnet":"?xt=urn:btih:6a3ca42f9f24b43475ddcab8e4bf444e9e9bf3f4&amp;dn=Max.2015.HC.HDRiP.XViD.ReLeNTLesS&amp;tr=udp%3A%2F%2Ftracker.openbittorrent.com%3A80&amp;tr=udp%3A%2F%2Fopen.demonii.com%3A1337&amp;tr=udp%3A%2F%2Ftracker.coppersurfer.tk%3A6969&amp;tr=udp%3A%2F%2Fexodus.desync.com%3A6969","seeders":2,"leechers":0,"uploader":"TvTeam","files":4,"time":1437612076,"description":"------------------------------------------------------------------------\n\n &lt;a href=&quot; https://www.torrenting.com&quot; rel=&quot;nofollow&quot; target=&quot;_NEW&quot;&gt; https://www.torrenting.com&lt;/a&gt;\n\nSign up is OPEN - for time being. Come and have fun\n\n.......................................................................................................................P0STER\n[img]http://i.imgur.com/I7SVn32.png[/img]\n\niMDB: http://www.imdb.com/title/tt3369806/\n\nGeneral\nComplete name               : Max.2015.HC.HDRiP.XViD.ReLeNTLesS.avi\nFormat                      : AVI\nFormat/Info                 : Audio Video Interleave\nFile size                   : 1.32 GiB\nDuration                    : 1h 50mn\nOverall bit rate            : 1 701 Kbps\n\nVideo\nID                          : 0\nFormat                      : MPEG-4 Visual\nFormat profile              : Advanced Simple@L5\nFormat settings, BVOP       : 1\nFormat settings, QPel       : No\nFormat settings, GMC        : No warppoints\nFormat settings, Matrix     : Default (H.263)\nMuxing mode                 : Packed bitstream\nCodec ID                    : XVID\nCodec ID/Hint               : XviD\nDuration                    : 1h 50mn\nBit rate                    : 1 501 Kbps\nWidth                       : 720 pixels\nHeight                      : 304 pixels\nDisplay aspect ratio        : 2.35:1\nFrame rate                  : 23.976 fps\nColor space                 : YUV\nChroma subsampling          : 4:2:0\nBit depth                   : 8 bits\nScan type                   : Progressive\nCompression mode            : Lossy\nBits/(Pixel*Frame)          : 0.286\nStream size                 : 1.16 GiB (88%)\nWriting library             : XviD 1.2.1 (UTC 2008-12-04)\n\nAudio\nID                          : 1\nFormat                      : AC-3\nFormat/Info                 : Audio Coding 3\nMode extension              : CM (complete main)\nFormat settings, Endianness : Big\nCodec ID                    : 2000\nDuration                    : 1h 50mn\nBit rate mode               : Constant\nBit rate                    : 192 Kbps\nChannel(s)                  : 6 channels\nChannel positions           : Front: L C R, Side: L R, LFE\nSampling rate               : 48.0 KHz\nCompression mode            : Lossy\nStream size                 : 152 MiB (11%)\nAlignment                   : Aligned on interleaves\nInterleave, duration        : 64 ms (1.53 video frames)\nInterleave, preload duratio : 192 ms\nTitle                       : Max.2015.HC ReLeNTLesS.audio.2.0\nSample Included             : Yes\nSource                      : Mp4ba 1080\n\nPL0T\nA dog that helped US Marines in Afghanistan returns to the U.S. and is adopted by his handler's family after suffering a traumatic experience.\n\nCAST\nDirector: Boaz Yakin\nWriters: Boaz Yakin, Sheldon Lettich\nStars: Thomas Haden Church, Josh Wiggins, Luke Kleintank\n\nN0TE\nFirst source was blocky as so waited for 1080 and ripped from that.  Sharpend and tweeked some bits and bobs. Has Hardcoded Korean Subs throughout \n\nSCREENS\n[img]http://i.imgur.com/m6vUdSQ.png[/img]\n[img]http://i.imgur.com/CRrz31v.png[/img]\n[img]http://i.imgur.com/rjZtcz3.png[/img]\n[img]http://i.imgur.com/RdjvAmE.png[/img]\n\nTRAiLER\n\nGREETZ\n\n\nHIVE-CM8, Blackjesus, M0RPH, M00SE, MiLLENiUM,\n\nMANiX, TiTAN, Anonymous, TuX, \n\nACAB, KingStoner, FooKas, 4PlayHD, \n\nGodFather, Cld","torrent":{"xt":"urn:btih:6a3ca42f9f24b43475ddcab8e4bf444e9e9bf3f4","amp;dn":"Max.2015.HC.HDRiP.XViD.ReLeNTLesS","amp;tr":["udp%3A%2F%2Ftracker.openbittorrent.com%3A80","udp%3A%2F%2Fopen.demonii.com%3A1337","udp%3A%2F%2Ftracker.coppersurfer.tk%3A6969","udp%3A%2F%2Fexodus.desync.com%3A6969"],"infoHash":"6a3ca42f9f24b43475ddcab8e4bf444e9e9bf3f4","infoHashBuffer":{"type":"Buffer","data":[106,60,164,47,159,36,180,52,117,221,202,184,228,191,68,78,158,155,243,244]},"announce":[],"urlList":[]}}